<svg xmlns="http://www.w3.org/2000/svg" viewBox="0 0 48 48" width="48" height="48">
  <path fill="#EA4335" d="M24 9.5c3.54 0 6.68 1.22 9.16 3.6l6.84-6.84C36.13 2.7 30.52 0 24 0 14.64 0 6.64 5.36 2.68 13.15l7.98 6.2C12.1 13.61 17.56 9.5 24 9.5z"></path>
  <path fill="#34A853" d="M46.5 24.5c0-1.6-.14-3.12-.4-4.6H24v9.1h12.7c-.56 2.88-2.25 5.32-4.76 6.98l7.35 5.72C43.7 37.38 46.5 31.38 46.5 24.5z"></path>
  <path fill="#4A90E2" d="M9.9 28.35c-.6-1.8-.95-3.7-.95-5.7s.35-3.9.95-5.7l-7.98-6.2C.68 14.8 0 19.3 0 24s.68 9.2 1.92 13.25l7.98-6.2z"></path>
  <path fill="#FBBC05" d="M24 48c6.48 0 11.93-2.13 15.9-5.7l-7.35-5.72c-2.04 1.38-4.68 2.2-8.55 2.2-6.44 0-11.9-4.11-13.34-9.75l-7.98 6.2C6.64 42.64 14.64 48 24 48z"></path>
  <path fill="none" d="M0 0h48v48H0z"></path>
</svg>
